<?xml version="1.0" encoding="UTF-8" ?>
<!DOCTYPE svg PUBLIC "-//W3C//DTD SVG 1.1//EN" "http://www.w3.org/Graphics/SVG/1.1/DTD/svg11.dtd">
<svg width="191pt" height="186pt" viewBox="0 0 191 186" version="1.1" xmlns="http://www.w3.org/2000/svg">
<path fill="#fff4de" d=" M 0.00 0.00 L 46.46 0.00 C 41.31 1.62 36.57 4.27 32.01 7.10 C 25.69 11.10 21.64 17.61 17.79 23.83 C 12.40 33.81 11.61 45.64 13.30 56.70 C 14.32 61.98 16.75 66.86 19.46 71.46 C 21.78 75.42 25.32 78.43 28.15 81.99 C 28.92 89.62 28.86 97.37 27.86 104.97 C 28.18 109.15 28.38 114.17 32.08 116.89 C 34.97 119.72 38.87 121.32 42.92 120.32 C 43.60 119.49 44.28 118.67 44.97 117.85 C 45.63 123.88 48.87 129.16 51.57 134.45 C 53.44 138.08 56.42 140.91 59.17 143.86 C 61.71 146.57 62.75 150.26 63.11 153.87 C 61.41 156.19 59.50 158.47 58.51 161.20 C 57.86 164.45 60.72 166.98 61.88 169.75 C 62.89 168.78 63.88 167.79 64.89 166.83 C 65.04 168.22 65.18 169.60 65.33 171.00 C 64.83 170.84 63.83 170.52 63.33 170.36 C 64.19 175.54 63.58 180.79 63.73 186.00 L 0.00 186.00 L 0.00 0.00 Z" />
<path fill="#ecf1a6" d=" M 46.46 0.00 L 74.62 0.00 C 87.23 5.40 99.25 14.49 104.34 27.65 C 106.13 31.41 107.03 35.59 106.29 39.74 C 105.82 39.26 104.88 38.31 104.41 37.83 C 104.74 37.56 105.40 37.03 105.73 36.77 C 104.29 35.16 102.73 33.67 100.87 32.54 C 100.94 32.98 101.07 33.85 101.13 34.29 L 101.39 35.86 C 100.58 35.89 98.96 35.94 98.14 35.97 C 97.67 36.86 97.20 37.75 96.72 38.64 C 96.19 38.81 95.13 39.16 94.59 39.34 C 94.30 38.87 93.72 37.91 93.42 37.44 C 94.90 35.46 97.01 34.09 98.61 32.23 C 98.12 32.50 97.14 33.05 96.65 33.33 C 95.40 33.71 93.49 33.59 93.36 35.29 C 93.23 36.34 93.12 37.39 93.00 38.43 C 93.30 39.03 93.89 40.21 94.18 40.80 C 94.27 41.74 94.44 43.62 94.53 44.57 C 91.10 44.30 87.61 43.96 84.47 42.44 L 84.72 41.16 L 84.96 39.95 C 85.27 39.97 85.87 40.00 86.18 40.01 C 86.21 39.42 86.29 38.23 86.32 37.64 C 86.25 37.21 86.09 36.37 86.01 35.95 C 86.30 35.04 86.61 34.12 86.93 33.22 C 86.66 33.53 86.11 34.17 85.84 34.49 C 84.63 33.68 83.45 32.80 82.09 32.25 L 81.71 32.61 C 81.52 32.81 81.13 33.20 80.93 33.40 C 80.40 33.15 79.32 32.66 78.78 32.41 C 78.45 32.45 77.78 32.53 77.45 32.57 C 74.65 34.07 74.09 37.09 74.23 39.98 C 71.34 38.93 68.47 37.84 65.62 36.68 C 65.63 35.97 65.65 35.26 65.66 34.55 C 64.52 34.40 63.39 34.26 62.25 34.11 C 62.74 34.98 63.22 35.85 63.72 36.72 C 60.89 36.06 57.92 35.61 55.13 36.69 C 52.80 37.25 50.39 37.40 48.03 37.84 L 47.94 37.13 C 46.34 38.63 43.93 38.99 42.54 37.07 C 42.53 36.73 42.52 36.03 42.51 35.68 C 41.79 36.41 41.09 37.17 40.41 37.95 L 39.55 39.06 C 38.49 39.54 37.44 40.02 36.39 40.49 C 36.46 40.70 36.61 41.12 36.69 41.34 C 35.30 42.24 34.23 43.49 33.55 45.00 C 32.91 44.97 31.64 44.91 31.00 44.88 C 30.31 44.98 28.93 45.19 28.24 45.30 L 28.20 45.95 C 28.06 47.78 28.00 49.62 27.93 51.45 C 27.05 52.58 25.86 53.57 25.48 55.01 C 25.87 56.36 27.01 57.29 27.86 58.36 C 28.16 66.24 27.80 74.12 28.15 81.99 C 25.32 78.43 21.78 75.42 19.46 71.46 C 16.75 66.86 14.32 61.98 13.30 56.70 C 11.61 45.64 12.40 33.81 17.79 23.83 C 21.64 17.61 25.69 11.10 32.01 7.10 C 36.57 4.27 41.31 1.62 46.46 0.00 Z" />
<path fill="#fff4de" d=" M 74.62 0.00 L 191.00 0.00 L 191.00 186.00 L 99.92 186.00 C 98.18 182.07 96.08 178.20 95.47 173.88 C 95.67 171.26 93.10 170.25 91.51 168.79 C 93.07 169.03 94.64 169.41 95.99 170.29 C 96.54 168.49 97.24 166.72 98.47 165.26 L 97.18 163.81 L 99.93 164.57 C 99.53 160.91 98.77 157.02 96.24 154.17 C 95.68 154.69 94.57 155.74 94.01 156.27 C 93.93 150.47 91.76 144.77 92.91 138.97 C 94.45 129.39 95.15 119.57 93.68 109.93 C 92.92 104.29 92.99 98.37 90.42 93.16 C 88.31 93.17 86.21 93.33 84.14 93.75 C 83.67 92.33 83.21 90.91 82.67 89.52 L 82.12 89.08 C 87.67 84.71 93.74 80.74 97.90 74.91 C 102.48 68.68 106.25 61.52 106.89 53.69 C 107.74 48.87 107.88 43.97 107.58 39.10 C 107.25 39.26 106.61 39.58 106.29 39.74 C 107.03 35.59 106.13 31.41 104.34 27.65 C 99.25 14.49 87.23 5.40 74.62 0.00 Z" />
<path fill="#fff4de" d=" M 77.45 32.57 C 77.78 32.53 78.45 32.45 78.78 32.41 C 79.04 32.92 79.55 33.93 79.80 34.43 C 80.09 34.17 80.65 33.66 80.93 33.40 C 81.13 33.20 81.52 32.81 81.71 32.61 C 81.82 32.90 82.05 33.48 82.16 33.76 C 82.97 34.55 83.91 35.11 84.99 35.46 C 85.20 35.22 85.63 34.73 85.84 34.49 C 86.11 34.17 86.66 33.53 86.93 33.22 C 86.61 34.12 86.30 35.04 86.01 35.95 C 84.35 36.52 84.87 38.63 84.96 39.95 L 84.72 41.16 C 83.54 41.83 82.19 41.78 80.91 41.47 C 81.74 40.93 83.38 39.84 84.20 39.29 L 82.64 39.13 C 83.06 38.39 83.48 37.65 83.89 36.90 C 82.91 36.37 81.94 35.83 80.97 35.29 L 80.84 35.86 C 81.58 37.05 83.70 39.74 81.10 40.31 C 78.78 41.75 76.66 39.06 76.34 36.92 C 77.31 35.63 78.06 34.21 77.45 32.57 Z" />
<path fill="#060906" d=" M 78.78 32.41 C 79.32 32.66 80.40 33.15 80.93 33.40 C 80.65 33.66 80.09 34.17 79.80 34.43 C 79.55 33.93 79.04 32.92 78.78 32.41 Z" />
<path fill="#060906" d=" M 81.71 32.61 L 82.09 32.25 C 83.45 32.80 84.63 33.68 85.84 34.49 C 85.63 34.73 85.20 35.22 84.99 35.46 C 83.91 35.11 82.97 34.55 82.16 33.76 C 82.05 33.48 81.82 32.90 81.71 32.61 Z" />
<path fill="#060906" d=" M 96.65 33.33 C 97.14 33.05 98.12 32.50 98.61 32.23 C 97.01 34.09 94.90 35.46 93.42 37.44 C 93.72 37.91 94.30 38.87 94.59 39.34 L 95.16 40.16 C 96.49 40.73 97.84 41.23 99.19 41.75 C 99.86 41.11 101.21 39.83 101.89 39.20 C 100.82 37.90 99.80 34.82 98.37 37.62 C 98.63 38.31 99.16 39.71 99.42 40.41 C 98.75 39.97 97.40 39.08 96.72 38.64 C 97.20 37.75 97.67 36.86 98.14 35.97 C 98.96 35.94 100.58 35.89 101.39 35.86 C 101.87 37.02 102.42 38.15 102.97 39.28 C 101.74 40.89 100.09 42.04 98.25 42.84 C 96.88 42.18 95.51 41.54 94.18 40.80 C 93.89 40.21 93.30 39.03 93.00 38.43 C 93.12 37.39 93.23 36.34 93.36 35.29 C 93.49 33.59 95.40 33.71 96.65 33.33 Z" />
<path fill="#060906" d=" M 99.13 32.58 C 102.48 32.73 97.55 35.52 99.13 32.58 Z" />
<path fill="#eef1a8" d=" M 74.23 39.98 C 74.09 37.09 74.65 34.07 77.45 32.57 C 76.55 35.11 74.42 38.69 77.32 40.79 C 78.21 40.99 79.98 41.39 80.87 41.59 C 80.59 42.54 80.27 43.47 79.96 44.41 C 78.77 43.59 77.57 42.79 76.37 41.98 L 75.62 43.16 C 75.23 42.79 74.45 42.05 74.06 41.68 L 73.94 42.84 C 75.84 43.44 77.73 44.09 79.61 44.80 L 77.00 45.33 L 76.17 45.51 C 74.78 45.53 73.39 45.53 72.00 45.50 C 72.00 45.72 72.00 46.16 72.00 46.38 C 72.77 46.41 74.30 46.47 75.07 46.50 C 72.16 49.33 66.65 48.57 63.65 46.20 L 64.04 45.35 C 65.68 45.76 67.32 46.19 68.95 46.63 C 68.95 46.41 68.97 45.96 68.98 45.73 C 67.16 45.13 65.49 43.26 63.45 43.84 L 62.34 44.04 C 61.99 42.88 61.65 41.72 61.29 40.56 C 60.42 40.15 59.56 39.74 58.71 39.30 L 58.25 38.92 C 59.39 37.84 59.08 37.34 57.32 37.43 L 56.76 37.50 C 56.64 37.52 56.41 37.55 56.29 37.56 L 55.82 37.61 L 55.13 36.69 C 57.92 35.61 60.89 36.06 63.72 36.72 C 63.22 35.85 62.74 34.98 62.25 34.11 C 63.39 34.26 64.52 34.40 65.66 34.55 C 65.65 35.26 65.63 35.97 65.62 36.68 C 68.47 37.84 71.34 38.93 74.23 39.98 Z" />
<path fill="#060906" d=" M 77.45 32.57 C 78.06 34.21 77.31 35.63 76.34 36.92 C 76.66 39.06 78.78 41.75 81.10 40.31 C 83.70 39.74 81.58 37.05 80.84 35.86 L 80.97 35.29 C 81.94 35.83 82.91 36.37 83.89 36.90 C 83.48 37.65 83.06 38.39 82.64 39.13 L 84.20 39.29 C 83.38 39.84 81.74 40.93 80.91 41.47 C 82.19 41.78 83.54 41.83 84.72 41.16 L 84.47 42.44 C 84.18 43.36 84.62 44.23 85.15 44.98 L 85.50 45.29 L 85.49 45.58 C 85.26 45.59 84.79 45.61 84.56 45.63 L 84.52 46.72 L 84.19 46.21 C 83.66 43.49 81.17 44.44 79.50 45.18 C 78.87 45.45 77.62 46.00 76.99 46.27 L 77.00 45.33 L 79.61 44.80 C 77.73 44.09 75.84 43.44 73.94 42.84 L 74.06 41.68 C 74.45 42.05 75.23 42.79 75.62 43.16 L 76.37 41.98 C 77.57 42.79 78.77 43.59 79.96 44.41 C 80.27 43.47 80.59 42.54 80.87 41.59 C 79.98 41.39 78.21 40.99 77.32 40.79 C 74.42 38.69 76.55 35.11 77.45 32.57 Z" />
<path fill="#060906" d=" M 100.87 32.54 C 102.73 33.67 104.29 35.16 105.73 36.77 C 105.40 37.03 104.74 37.56 104.41 37.83 C 104.88 38.31 105.82 39.26 106.29 39.74 C 106.03 39.88 105.51 40.16 105.25 40.30 C 105.10 40.60 104.79 41.22 104.63 41.53 C 103.65 42.37 102.67 43.21 101.67 44.04 L 102.46 45.17 C 102.06 45.03 101.26 44.74 100.86 44.59 C 98.06 45.76 95.00 46.02 92.02 46.40 C 92.01 46.13 91.99 45.59 91.98 45.32 C 93.87 45.24 95.74 44.97 97.62 44.73 C 98.11 44.56 99.09 44.21 99.58 44.03 C 100.13 43.86 101.23 43.53 101.78 43.37 C 103.84 40.91 105.62 36.90 102.47 34.47 L 101.13 34.29 C 101.07 33.85 100.94 32.98 100.87 32.54 Z" />
<path fill="#fff4de" d=" M 101.13 34.29 L 102.47 34.47 C 105.62 36.90 103.84 40.91 101.78 43.37 C 101.23 43.53 100.13 43.86 99.58 44.03 C 99.09 44.21 98.11 44.56 97.62 44.73 C 95.74 44.97 93.87 45.24 91.98 45.32 C 91.99 45.59 92.01 46.13 92.02 46.40 L 91.37 46.48 C 91.27 43.88 87.68 44.16 87.15 46.39 C 86.27 46.55 85.40 46.66 84.52 46.72 L 84.56 45.63 C 84.79 45.61 85.26 45.59 85.49 45.58 L 85.50 45.29 L 85.15 44.98 C 84.62 44.23 84.18 43.36 84.47 42.44 C 87.61 43.96 91.10 44.30 94.53 44.57 C 94.44 43.62 94.27 41.74 94.18 40.80 C 95.51 41.54 96.88 42.18 98.25 42.84 C 100.09 42.04 101.74 40.89 102.97 39.28 C 102.42 38.15 101.87 37.02 101.39 35.86 L 101.13 34.29 Z" />
<path fill="#fff4de" d=" M 40.41 37.95 C 41.09 37.17 41.79 36.41 42.51 35.68 C 42.52 36.03 42.53 36.73 42.54 37.07 C 42.43 38.07 42.61 39.06 42.84 40.02 C 41.30 41.51 39.80 43.03 38.52 44.74 C 37.04 44.79 35.56 44.83 34.08 44.86 C 35.40 43.48 36.76 42.15 38.09 40.78 C 39.31 40.04 40.53 39.29 41.74 38.53 L 40.41 37.95 Z" />
<path fill="#060906" d=" M 84.96 39.95 C 84.87 38.63 84.35 36.52 86.01 35.95 C 86.09 36.37 86.25 37.21 86.32 37.64 C 86.29 38.23 86.21 39.42 86.18 40.01 C 85.87 40.00 85.27 39.97 84.96 39.95 Z" />
<path fill="#060906" d=" M 42.84 40.02 C 42.61 39.06 42.43 38.07 42.54 37.07 C 43.93 38.99 46.34 38.63 47.94 37.13 L 48.03 37.84 C 50.39 37.40 52.80 37.25 55.13 36.69 L 55.82 37.61 C 54.67 37.71 52.38 37.91 51.24 38.02 C 50.50 37.84 47.80 38.36 49.38 39.38 C 51.02 39.89 52.69 40.33 54.40 40.53 C 54.42 40.93 54.45 41.74 54.46 42.14 C 53.78 41.78 52.40 41.05 51.71 40.68 C 50.29 40.30 48.88 39.88 47.49 39.42 C 46.54 39.30 45.60 39.17 44.66 39.05 C 43.33 40.81 41.71 42.32 40.35 44.06 C 40.73 46.24 43.14 45.92 44.79 46.43 C 44.99 48.94 44.72 51.61 45.90 53.93 C 46.92 56.30 49.46 57.31 51.62 58.36 C 53.06 62.06 54.94 66.37 59.20 67.41 C 63.21 68.49 66.42 71.69 67.31 75.76 C 68.85 79.77 66.91 83.96 64.62 87.23 C 66.30 86.43 68.72 84.71 70.33 86.64 C 71.66 87.94 72.75 89.45 73.91 90.89 C 76.29 88.88 79.12 86.80 82.12 89.08 L 82.67 89.52 C 83.21 90.91 83.67 92.33 84.14 93.75 C 86.21 93.33 88.31 93.17 90.42 93.16 C 92.99 98.37 92.92 104.29 93.68 109.93 C 95.15 119.57 94.45 129.39 92.91 138.97 C 91.76 144.77 93.93 150.47 94.01 156.27 C 94.57 155.74 95.68 154.69 96.24 154.17 C 98.77 157.02 99.53 160.91 99.93 164.57 L 97.18 163.81 L 98.47 165.26 C 97.24 166.72 96.54 168.49 95.99 170.29 C 94.64 169.41 93.07 169.03 91.51 168.79 C 93.10 170.25 95.67 171.26 95.47 173.88 C 96.08 178.20 98.18 182.07 99.92 186.00 L 63.73 186.00 C 63.58 180.79 64.19 175.54 63.33 170.36 C 63.83 170.52 64.83 170.84 65.33 171.00 C 65.18 169.60 65.04 168.22 64.89 166.83 C 63.88 167.79 62.89 168.78 61.88 169.75 C 60.72 166.98 57.86 164.45 58.51 161.20 C 59.50 158.47 61.41 156.19 63.11 153.87 C 62.75 150.26 61.71 146.57 59.17 143.86 C 56.42 140.91 53.44 138.08 51.57 134.45 C 48.87 129.16 45.63 123.88 44.97 117.85 C 44.28 118.67 43.60 119.49 42.92 120.32 C 38.87 121.32 34.97 119.72 32.08 116.89 C 28.38 114.17 28.18 109.15 27.86 104.97 C 28.86 97.37 28.92 89.62 28.15 81.99 C 27.80 74.12 28.16 66.24 27.86 58.36 C 27.01 57.29 25.87 56.36 25.48 55.01 C 25.86 53.57 27.05 52.58 27.93 51.45 C 28.00 49.62 28.06 47.78 28.20 45.95 C 29.60 46.57 30.54 46.22 31.00 44.88 C 31.64 44.91 32.91 44.97 33.55 45.00 C 34.23 43.49 35.30 42.24 36.69 41.34 C 36.61 41.12 36.46 40.70 36.39 40.49 C 37.44 40.02 38.49 39.54 39.55 39.06 L 40.41 37.95 L 41.74 38.53 C 40.53 39.29 39.31 40.04 38.09 40.78 C 36.76 42.15 35.40 43.48 34.08 44.86 C 35.56 44.83 37.04 44.79 38.52 44.74 C 39.80 43.03 41.30 41.51 42.84 40.02 Z" />
<path fill="#040200" d=" M 56.29 37.56 C 56.41 37.55 56.64 37.52 56.76 37.50 C 56.64 37.52 56.41 37.55 56.29 37.56 Z" />
<path fill="#ecf1a5" d=" M 56.76 37.50 L 57.32 37.43 C 57.55 37.81 58.02 38.55 58.25 38.92 L 58.71 39.30 C 59.56 39.74 60.42 40.15 61.29 40.56 C 61.65 41.72 61.99 42.88 62.34 44.04 C 61.22 43.85 60.11 43.63 58.99 43.40 L 59.00 41.99 L 57.73 42.03 C 58.24 42.69 58.75 43.36 59.26 44.02 C 60.36 44.37 61.45 44.76 62.53 45.19 L 63.65 46.20 C 66.65 48.57 72.16 49.33 75.07 46.50 C 75.34 46.25 75.90 45.76 76.17 45.51 L 77.00 45.33 L 76.99 46.27 C 77.62 46.00 78.87 45.45 79.50 45.18 C 81.17 44.44 83.66 43.49 84.19 46.21 L 84.52 46.72 C 85.40 46.66 86.27 46.55 87.15 46.39 C 88.55 46.42 89.96 46.66 91.37 46.48 L 92.02 46.40 C 95.00 46.02 98.06 45.76 100.86 44.59 C 101.26 44.74 102.06 45.03 102.46 45.17 C 104.51 47.69 105.40 50.86 106.89 53.69 C 106.25 61.52 102.48 68.68 97.90 74.91 C 93.74 80.74 87.67 84.71 82.12 89.08 C 79.12 86.80 76.29 88.88 73.91 90.89 C 72.75 89.45 71.66 87.94 70.33 86.64 C 68.72 84.71 66.30 86.43 64.62 87.23 C 66.91 83.96 68.85 79.77 67.31 75.76 C 66.42 71.69 63.21 68.49 59.20 67.41 C 54.94 66.37 53.06 62.06 51.62 58.36 C 49.46 57.31 46.92 56.30 45.90 53.93 C 44.72 51.61 44.99 48.94 44.79 46.43 C 43.14 45.92 40.73 46.24 40.35 44.06 C 41.71 42.32 43.33 40.81 44.66 39.05 C 45.60 39.17 46.54 39.30 47.49 39.42 C 48.88 39.88 50.29 40.30 51.71 40.68 C 52.40 41.05 53.78 41.78 54.46 42.14 C 54.45 41.74 54.42 40.93 54.40 40.53 L 54.39 40.21 C 53.38 39.42 52.33 38.69 51.24 38.02 C 52.38 37.91 54.67 37.71 55.82 37.61 L 56.29 37.56 C 56.41 37.55 56.64 37.52 56.76 37.50 Z" />
<path fill="#2d311b" d=" M 57.32 37.43 C 59.08 37.34 59.39 37.84 58.25 38.92 C 58.02 38.55 57.55 37.81 57.32 37.43 Z" />
<path fill="#060906" d=" M 59.94 37.48 C 63.22 37.50 58.57 40.58 59.94 37.48 Z" />
<path fill="#060906" d=" M 79.11 36.92 C 80.42 36.82 80.99 37.47 80.79 38.87 C 79.42 39.01 78.86 38.35 79.11 36.92 Z" />
<path fill="#fff4de" d=" M 98.37 37.62 C 99.80 34.82 100.82 37.90 101.89 39.20 C 101.21 39.83 99.86 41.11 99.19 41.75 C 97.84 41.23 96.49 40.73 95.16 40.16 L 94.59 39.34 C 95.13 39.16 96.19 38.81 96.72 38.64 C 97.40 39.08 98.75 39.97 99.42 40.41 C 99.16 39.71 98.63 38.31 98.37 37.62 Z" />
<path fill="#f8fbcd" d=" M 49.38 39.38 C 47.80 38.36 50.50 37.84 51.24 38.02 C 52.33 38.69 53.38 39.42 54.39 40.21 L 54.40 40.53 C 52.69 40.33 51.02 39.89 49.38 39.38 Z" />
<path fill="#060906" d=" M 63.29 39.51 C 59.18 37.61 67.78 37.71 67.02 40.13 C 65.82 40.79 64.45 39.87 63.29 39.51 Z" />
<path fill="#e4e891" d=" M 106.29 39.74 C 106.61 39.58 107.25 39.26 107.58 39.10 C 107.88 43.97 107.74 48.87 106.89 53.69 C 105.40 50.86 104.51 47.69 102.46 45.17 L 101.67 44.04 C 102.67 43.21 103.65 42.37 104.63 41.53 C 104.79 41.22 105.10 40.60 105.25 40.30 C 105.51 40.16 106.03 39.88 106.29 39.74 Z" />
<path fill="#060906" d=" M 68.06 40.15 C 69.57 39.44 73.22 40.48 73.06 42.39 C 71.50 42.14 68.65 41.72 68.06 40.15 Z" />
<path fill="#575c3d" d=" M 56.26 41.14 C 57.52 41.85 57.47 42.53 56.12 43.17 C 54.86 42.48 54.90 41.81 56.26 41.14 Z" />
<path fill="#060906" d=" M 57.73 42.03 L 59.00 41.99 L 58.99 43.40 C 60.11 43.63 61.22 43.85 62.34 44.04 L 63.45 43.84 C 65.49 43.26 67.16 45.13 68.98 45.73 C 68.97 45.96 68.95 46.41 68.95 46.63 C 67.32 46.19 65.68 45.76 64.04 45.35 L 63.65 46.20 L 62.53 45.19 C 61.45 44.76 60.36 44.37 59.26 44.02 C 58.75 43.36 58.24 42.69 57.73 42.03 Z" />
<path fill="#d5e17d" d=" M 66.22 42.08 C 69.17 40.49 66.43 45.41 66.22 42.08 Z" />
<path fill="#fafbdb" d=" M 28.24 45.30 C 28.93 45.19 30.31 44.98 31.00 44.88 C 30.54 46.22 29.60 46.57 28.20 45.95 L 28.24 45.30 Z" />
<path fill="#252718" d=" M 70.10 45.19 C 73.36 45.33 68.61 48.29 70.10 45.19 Z" />
<path fill="#060906" d=" M 72.00 45.50 C 73.39 45.53 74.78 45.53 76.17 45.51 C 75.90 45.76 75.34 46.25 75.07 46.50 C 74.30 46.47 72.77 46.41 72.00 46.38 C 72.00 46.16 72.00 45.72 72.00 45.50 Z" />
<path fill="#060906" d=" M 87.15 46.39 C 87.68 44.16 91.27 43.88 91.37 46.48 C 89.96 46.66 88.55 46.42 87.15 46.39 Z" />
<path fill="#eef3a5" d=" M 33.90 48.01 C 36.94 48.02 39.99 47.71 43.03 47.91 C 43.31 50.07 43.39 52.25 43.64 54.41 L 41.75 54.98 L 40.71 56.73 C 41.58 56.49 43.31 56.00 44.17 55.76 C 43.17 56.51 42.17 57.26 41.17 58.01 L 43.51 58.00 C 43.42 63.72 43.23 69.48 43.91 75.19 C 43.44 74.84 42.50 74.15 42.02 73.81 C 39.86 73.81 37.69 73.81 35.53 73.56 C 38.11 72.92 40.74 73.45 43.34 73.61 C 42.75 71.02 39.54 72.46 37.69 71.74 C 36.98 71.56 35.56 71.21 34.85 71.03 C 34.80 67.38 34.76 63.73 34.72 60.08 C 34.91 59.62 35.29 58.70 35.48 58.24 C 35.15 58.17 34.47 58.03 34.14 57.96 C 33.40 54.85 34.14 51.30 33.90 48.01 Z" />
<path fill="#dedf93" d=" M 23.43 60.06 C 23.98 60.07 25.09 60.08 25.64 60.08 C 26.15 63.05 27.13 66.23 25.48 69.03 C 25.21 67.59 24.95 66.14 24.68 64.70 C 23.16 64.03 21.12 62.64 23.56 61.42 C 23.53 61.08 23.46 60.40 23.43 60.06 Z" />
<path fill="#fff4de" d=" M 34.33 60.06 L 34.72 60.08 C 34.76 63.73 34.80 67.38 34.85 71.03 C 35.56 71.21 36.98 71.56 37.69 71.74 C 36.80 71.83 35.01 72.01 34.12 72.11 C 34.18 73.51 34.27 74.91 34.38 76.30 C 35.96 77.38 37.50 75.80 38.93 75.25 C 39.24 75.64 39.85 76.41 40.16 76.79 L 40.48 77.19 C 39.54 77.84 39.04 78.72 39.41 79.87 C 40.28 79.72 42.02 79.42 42.90 79.28 C 43.11 78.05 43.35 76.84 43.63 75.63 C 43.64 77.43 43.54 79.23 43.61 81.03 C 43.61 82.76 43.58 84.48 43.62 86.20 C 43.74 87.94 43.87 89.68 43.90 91.42 C 43.42 91.31 42.46 91.08 41.99 90.97 C 40.44 90.57 38.74 90.66 37.25 91.22 L 36.84 91.36 L 35.75 90.98 C 37.22 90.53 38.70 90.10 40.16 89.60 L 40.67 89.48 C 41.23 89.61 42.37 89.85 42.93 89.98 C 42.15 87.53 43.10 85.11 43.16 82.65 C 42.36 82.61 40.77 82.54 39.98 82.50 C 39.97 82.82 39.96 83.45 39.95 83.76 C 40.76 80.09 36.75 81.56 35.01 81.99 C 35.44 81.69 36.29 81.08 36.72 80.78 C 36.57 79.91 36.41 79.04 36.24 78.18 L 34.15 78.90 L 34.63 77.69 C 32.91 76.21 33.80 73.87 33.72 71.93 C 34.13 67.99 33.21 63.91 34.33 60.06 Z" />
<path fill="#fff4de" d=" M 47.17 62.54 C 47.36 63.00 47.75 63.94 47.95 64.41 C 47.95 68.42 48.16 72.44 48.64 76.43 C 48.66 78.97 48.32 81.50 48.16 84.04 C 48.14 84.35 48.11 84.98 48.10 85.30 C 48.03 89.31 48.10 93.33 47.54 97.32 C 46.25 94.39 46.78 91.12 46.83 88.03 C 47.29 79.54 46.69 71.02 47.17 62.54 Z" />
<path fill="#807d42" d=" M 47.95 64.41 L 49.11 64.33 L 49.17 65.14 C 49.29 66.61 49.44 68.09 49.62 69.56 L 49.66 69.97 L 49.73 70.46 C 49.33 72.44 49.03 74.44 48.64 76.43 C 48.16 72.44 47.95 68.42 47.95 64.41 Z" />
<path fill="#70717b" d=" M 49.11 64.33 C 50.87 62.44 51.13 66.81 49.17 65.14 L 49.11 64.33 Z" />
<path fill="#fff4de" d=" M 50.43 66.84 C 50.46 70.66 51.16 74.50 50.50 78.29 C 50.25 75.68 50.15 73.05 49.73 70.46 L 49.66 69.97 L 49.62 69.56 C 49.83 68.88 50.23 67.52 50.43 66.84 Z" />
<path fill="#fff4de" d=" M 53.44 67.73 C 55.92 68.89 58.55 69.72 61.03 70.86 C 65.24 74.04 66.88 80.93 63.15 85.05 C 62.83 82.66 63.09 80.29 63.82 78.01 C 63.05 76.00 61.74 74.19 60.83 72.21 C 60.33 71.91 59.32 71.31 58.82 71.01 C 58.16 71.00 56.82 70.99 56.16 70.98 C 55.46 71.88 54.76 72.78 54.07 73.68 C 54.04 75.99 55.16 78.85 53.37 80.74 C 53.24 76.40 53.89 72.06 53.44 67.73 Z" />
<path fill="#d3cb6f" d=" M 24.89 76.26 C 28.23 76.32 23.42 79.28 24.89 76.26 Z" />
<path fill="#131406" d=" M 37.24 78.49 C 37.55 78.77 37.55 78.77 37.24 78.49 Z" />
<path fill="#a0a479" d=" M 50.00 79.25 C 51.24 79.62 51.45 80.45 50.64 81.74 C 49.40 81.36 49.19 80.53 50.00 79.25 Z" />
<path fill="#060906" d=" M 40.63 81.37 C 41.42 79.96 42.25 79.96 43.12 81.34 C 42.34 82.23 41.51 82.24 40.63 81.37 Z" />
<path fill="#6d756d" d=" M 33.21 82.34 C 34.57 81.41 35.83 83.85 34.80 84.82 C 33.42 85.76 32.19 83.31 33.21 82.34 Z" />
<path fill="#7e735a" d=" M 48.16 84.04 C 48.88 83.82 50.32 83.36 51.04 83.14 C 50.78 87.89 51.42 92.72 50.61 97.42 C 50.23 97.69 49.49 98.24 49.12 98.51 C 49.20 96.32 49.22 94.14 49.34 91.95 C 50.62 91.21 50.55 90.62 49.16 90.15 C 48.73 88.55 48.41 86.92 48.10 85.30 C 48.11 84.98 48.14 84.35 48.16 84.04 Z" />
<path fill="#fff4de" d=" M 53.08 83.45 C 55.20 84.87 54.80 88.45 53.41 90.32 C 53.03 88.05 53.02 85.74 53.08 83.45 Z" />
<path fill="#6d746e" d=" M 37.17 85.33 C 38.01 84.63 40.51 84.38 40.63 85.78 C 39.79 86.48 37.29 86.73 37.17 85.33 Z" />
<path fill="#ad9894" d=" M 37.55 88.82 C 37.28 87.20 40.48 87.90 40.84 89.05 L 40.67 89.48 L 40.16 89.60 C 39.51 89.40 38.20 89.02 37.55 88.82 Z" />
<path fill="#fb696e" d=" M 32.28 91.59 C 32.96 91.06 33.69 90.60 34.41 90.14 C 34.63 90.53 35.07 91.30 35.29 91.69 C 35.68 91.61 36.45 91.44 36.84 91.36 L 37.25 91.22 C 38.63 92.40 40.71 92.54 42.37 92.01 L 42.36 91.34 L 41.99 90.97 C 42.46 91.08 43.42 91.31 43.90 91.42 C 44.02 96.72 43.41 102.01 43.74 107.31 C 43.18 107.20 42.06 106.99 41.51 106.88 C 38.97 106.34 36.46 105.74 33.94 105.13 C 33.85 100.92 33.43 96.70 33.83 92.49 C 33.44 92.26 32.67 91.81 32.28 91.59 Z" />
<path fill="#919f8e" d=" M 49.16 90.15 C 50.55 90.62 50.62 91.21 49.34 91.95 C 49.30 91.50 49.20 90.60 49.16 90.15 Z" />
<path fill="#0b0d08" d=" M 37.25 91.22 C 38.74 90.66 40.44 90.57 41.99 90.97 L 42.36 91.34 L 42.37 92.01 C 40.71 92.54 38.63 92.40 37.25 91.22 Z" />
<path fill="#0e0b07" d=" M 35.08 92.91 C 36.42 92.43 37.75 92.44 39.07 92.93 C 40.83 93.34 38.57 94.87 38.34 95.49 C 37.69 95.26 36.37 94.80 35.71 94.56 C 37.85 96.14 40.69 95.53 43.16 95.81 L 42.75 96.83 C 42.42 97.65 42.09 98.47 41.77 99.29 C 41.03 96.07 37.66 97.33 35.31 97.21 C 36.25 98.15 37.18 99.08 38.17 99.97 C 37.30 99.98 35.55 100.00 34.68 100.00 C 34.96 97.79 34.90 95.55 34.40 93.37 L 35.08 92.91 Z" />
<path fill="#00090a" d=" M 41.38 94.38 C 41.64 94.64 41.64 94.64 41.38 94.38 Z" />
<path fill="#37211f" d=" M 35.31 97.21 C 37.66 97.33 41.03 96.07 41.77 99.29 C 42.09 98.47 42.42 97.65 42.75 96.83 C 42.85 97.61 43.04 99.18 43.13 99.96 C 41.48 99.98 39.82 100.06 38.17 99.97 C 37.18 99.08 36.25 98.15 35.31 97.21 Z" />
<path fill="#ff8b99" d=" M 33.94 105.13 C 36.46 105.74 38.97 106.34 41.51 106.88 C 38.97 107.02 36.44 107.08 33.90 107.17 C 33.91 106.66 33.93 105.64 33.94 105.13 Z" />
<path fill="#d68190" d=" M 60.94 158.04 C 61.79 156.88 62.82 155.91 64.17 155.35 C 64.50 157.46 63.72 159.39 62.61 161.12 C 62.06 160.09 61.50 159.06 60.94 158.04 Z" />
<path fill="#fccbdd" d=" M 96.10 156.26 C 99.34 156.48 94.56 159.35 96.10 156.26 Z" />
<path fill="#fff4de" d=" M 93.24 156.97 C 94.93 157.04 94.99 160.94 93.73 161.75 C 92.22 160.91 92.56 158.30 93.24 156.97 Z" />
<path fill="#e5868c" d=" M 65.58 159.45 C 66.93 159.05 67.37 159.63 66.89 161.19 C 66.72 161.35 66.40 161.66 66.24 161.82 C 64.91 161.47 64.69 160.68 65.58 159.45 Z" />
<path fill="#fff4de" d=" M 66.47 165.06 C 67.34 163.46 68.33 161.91 69.43 160.46 C 69.79 160.76 70.51 161.36 70.88 161.66 C 69.44 163.36 68.68 165.42 68.29 167.60 C 67.47 166.92 66.46 166.24 66.47 165.06 Z" />
<path fill="#843c42" d=" M 73.00 161.51 C 71.59 160.45 73.46 159.03 74.39 160.34 C 75.40 161.08 75.80 163.53 74.31 163.88 C 74.24 162.88 73.81 162.09 73.00 161.51 Z" />
<path fill="#83515e" d=" M 90.30 160.24 C 92.14 159.49 92.11 162.55 90.59 162.86 C 88.75 163.72 89.27 160.74 90.30 160.24 Z" />
<path fill="#ffa9c2" d=" M 96.27 160.10 C 96.88 160.76 96.88 160.76 96.27 160.10 Z" />
<path fill="#eb8f92" d=" M 59.26 161.01 C 60.94 159.70 61.69 162.93 60.49 163.79 C 58.83 165.15 58.19 161.87 59.26 161.01 Z" />
<path fill="#f8cbd2" d=" M 66.24 161.82 C 66.40 161.66 66.72 161.35 66.89 161.19 C 66.72 161.35 66.40 161.66 66.24 161.82 Z" />
<path fill="#f2aaaa" d=" M 73.00 161.51 C 73.81 162.09 74.24 162.88 74.31 163.88 C 73.80 163.79 72.78 163.60 72.27 163.50 C 72.46 163.00 72.82 162.00 73.00 161.51 Z" />
<path fill="#fff4de" d=" M 76.07 163.59 C 76.73 162.56 77.50 161.60 78.45 160.83 C 78.54 161.59 78.72 163.11 78.81 163.87 C 78.12 163.80 76.76 163.66 76.07 163.59 Z" />
<path fill="#c87877" d=" M 61.92 162.92 C 62.97 162.70 64.14 161.94 65.06 162.94 C 65.46 164.97 63.21 165.66 62.04 166.83 C 61.99 165.53 61.96 164.22 61.92 162.92 Z" />
<path fill="#fff4de" d=" M 79.72 164.01 C 80.00 161.03 84.93 162.34 83.55 165.17 C 82.56 164.12 81.77 161.97 79.72 164.01 Z" />
<path fill="#fff4de" d=" M 84.68 161.91 C 86.26 161.37 86.86 161.91 86.50 163.53 C 84.90 164.06 84.29 163.52 84.68 161.91 Z" />
<path fill="#fff4de" d=" M 94.44 163.43 C 95.57 162.67 97.08 164.63 95.94 165.50 C 94.71 166.33 93.62 164.34 94.44 163.43 Z" />
<path fill="#e3808d" d=" M 70.99 165.43 C 72.33 165.76 73.68 166.07 75.03 166.40 C 73.90 167.67 72.81 169.13 70.98 169.35 C 70.98 168.04 70.98 166.73 70.99 165.43 Z" />
<path fill="#fff4de" d=" M 91.03 168.30 C 89.46 167.53 90.51 164.70 92.11 164.66 C 93.83 165.31 92.61 168.32 91.03 168.30 Z" />
<path fill="#c98187" d=" M 75.76 169.29 C 75.65 166.93 76.54 165.40 79.10 165.95 C 78.46 167.57 78.00 169.59 75.76 169.29 Z" />
<path fill="#fff4de" d=" M 81.54 170.00 C 80.73 168.43 80.34 166.00 82.81 165.80 C 82.75 167.31 82.93 169.01 81.54 170.00 Z" />
<path fill="#c8787b" d=" M 84.72 166.39 C 85.95 166.67 87.18 166.96 88.41 167.26 C 88.04 168.58 87.22 169.65 86.21 170.56 C 85.68 169.18 85.18 167.79 84.72 166.39 Z" />
<path fill="#d27c8a" d=" M 66.57 169.00 C 67.41 169.00 69.10 169.00 69.95 169.00 C 70.13 169.40 70.48 170.19 70.66 170.58 C 69.67 171.13 68.68 171.68 67.69 172.24 C 67.31 171.16 66.94 170.08 66.57 169.00 Z" />
<path fill="#bb868f" d=" M 71.91 171.70 C 71.61 170.31 72.17 169.78 73.58 170.12 C 73.84 171.49 73.28 172.02 71.91 171.70 Z" />
<path fill="#fff4de" d=" M 87.84 172.23 C 88.86 171.98 90.69 169.00 91.13 171.26 C 90.58 173.04 89.31 173.12 87.84 172.23 Z" />
<path fill="#fff4de" d=" M 77.83 173.68 C 76.02 174.22 74.77 171.27 76.75 170.64 C 78.45 170.13 79.48 173.05 77.83 173.68 Z" />
<path fill="#c5888d" d=" M 81.24 171.03 C 85.10 170.32 81.34 175.57 80.24 172.28 C 80.49 171.97 80.99 171.34 81.24 171.03 Z" />
<path fill="#fff4de" d=" M 84.54 171.60 C 85.06 171.53 86.10 171.38 86.62 171.31 C 88.12 174.30 81.92 174.52 84.54 171.60 Z" />
</svg>
